<svg width="48" height="48" viewBox="0 0 48 48" fill="none" xmlns="http://www.w3.org/2000/svg">
<circle cx="24" cy="24" r="21" fill="#8892BF"/>
<path d="M21.6588 15H24.1788L23.4666 18.7863H25.7311C26.9728 18.8129 27.898 19.0904 28.5068 19.6189C29.1277 20.1474 29.3103 21.1521 29.0546 22.6321L27.8311 29.2334H25.2745L26.4433 22.9295C26.5649 22.2686 26.5284 21.7995 26.3337 21.522C26.139 21.2445 25.719 21.1057 25.0736 21.1057L23.0466 21.0859L21.5492 29.2334H19.0291L21.6588 15Z" fill="white"/>
<path fill-rule="evenodd" clip-rule="evenodd" d="M10.1114 18.7864H15.0054C16.4419 18.7995 17.4828 19.2491 18.1281 20.1344C18.7735 21.0197 18.9864 22.229 18.7673 23.7622C18.6822 24.4627 18.4934 25.1498 18.2012 25.8238C17.921 26.4978 17.5317 27.1056 17.0324 27.6476C16.4236 28.3347 15.7724 28.7708 15.0785 28.956C14.3845 29.1411 13.6661 29.2335 12.9236 29.2335H10.7323L10.0383 33H7.5L10.1114 18.7864ZM11.1523 26.9934L12.2443 21.0661H12.6132C12.7472 21.0661 12.8871 21.0594 13.0332 21.0463C14.0073 21.0332 14.8166 21.1323 15.462 21.3437C16.1194 21.555 16.3385 22.3547 16.1194 23.7423C15.8517 25.3944 15.3279 26.3591 14.5489 26.6366C13.7699 26.901 12.7958 27.0263 11.6271 27.0132H11.3714C11.2984 27.0132 11.2253 27.0065 11.1523 26.9934Z" fill="white"/>
<path fill-rule="evenodd" clip-rule="evenodd" d="M36.6548 18.7864H31.7608L29.1494 33H31.6877L32.3817 29.2335H34.573C35.3155 29.2335 36.0339 29.1411 36.7279 28.956C37.4218 28.7708 38.073 28.3347 38.6818 27.6476C39.1811 27.1056 39.5704 26.4978 39.8505 25.8238C40.1427 25.1498 40.3315 24.4627 40.4167 23.7622C40.6358 22.229 40.4229 21.0197 39.7775 20.1344C39.1322 19.2491 38.0913 18.7995 36.6548 18.7864ZM33.8937 21.0661L32.8017 26.9934C32.8747 27.0065 32.9478 27.0132 33.0208 27.0132H33.2765C34.4452 27.0263 35.4192 26.901 36.1983 26.6366C36.9773 26.3591 37.501 25.3944 37.7688 23.7423C37.9879 22.3547 37.7688 21.555 37.1113 21.3437C36.466 21.1323 35.6566 21.0332 34.6826 21.0463C34.5365 21.0594 34.3966 21.0661 34.2626 21.0661H33.8937Z" fill="white"/>
</svg>
